<?xml version="1.0" standalone="no"?>
<!DOCTYPE svg PUBLIC "-//W3C//DTD SVG 20010904//EN"
 "http://www.w3.org/TR/2001/REC-SVG-20010904/DTD/svg10.dtd">
<svg version="1.0" xmlns="http://www.w3.org/2000/svg"
 width="240.000000pt" height="240.000000pt" viewBox="0 0 240.000000 240.000000"
 preserveAspectRatio="xMidYMid meet">

<g transform="translate(0.000000,240.000000) scale(0.100000,-0.100000)"
fill="#000000" stroke="none">
<path d="M0 1200 l0 -1200 1200 0 1200 0 0 1200 0 1200 -1200 0 -1200 0 0
-1200z m1053 738 c15 -40 27 -76 27 -80 0 -14 -31 -8 -36 7 -4 9 -19 15 -40
15 -24 0 -34 -5 -34 -15 0 -8 -9 -15 -20 -15 -25 0 -25 -2 1 62 12 29 25 63
30 76 17 44 43 26 72 -50z m167 57 c0 -11 -11 -15 -40 -15 -29 0 -40 -4 -40
-15 0 -9 10 -15 26 -15 31 0 28 -23 -4 -28 -40 -6 -26 -32 18 -32 33 0 40 -3
40 -20 0 -18 -7 -20 -55 -20 -30 0 -55 3 -56 8 -5 44 -8 130 -4 140 7 19 115
16 115 -3z m144 -57 c14 -40 26 -76 26 -80 0 -14 -31 -8 -36 7 -4 9 -19 15
-40 15 -24 0 -34 -5 -34 -15 0 -8 -9 -15 -20 -15 -25 0 -25 -2 1 62 12 29 25
63 30 76 5 12 17 22 27 22 15 0 26 -17 46 -72z m145 58 c16 -20 -2 -29 -39
-21 -41 9 -37 -1 10 -25 32 -16 40 -26 40 -48 0 -36 -17 -52 -52 -52 -35 0
-77 38 -57 51 8 5 22 3 35 -6 12 -8 26 -10 34 -5 10 6 4 14 -21 29 -19 12 -37
21 -41 21 -13 0 -9 58 5 63 25 11 75 6 86 -7z m254 -206 c-3 -14 -10 -29 -14
-34 -12 -13 -11 -26 1 -26 5 0 16 12 24 28 l14 27 11 -28 c14 -36 14 -43 -1
-86 -20 -56 -39 -60 -85 -18 -34 30 -28 40 17 33 31 -5 38 -3 34 8 -3 7 -24
16 -46 19 -26 4 -50 15 -67 32 l-26 27 48 -4 48 -3 -7 28 c-3 16 0 42 7 59
l12 30 18 -33 c10 -20 15 -44 12 -59z m-1013 55 c5 -14 7 -38 4 -53 -6 -27 -5
-28 35 -24 23 2 41 0 41 -5 0 -18 -37 -44 -71 -49 l-34 -6 -13 55 c-10 43 -10
61 -1 81 15 33 27 33 39 1z m-46 -148 c-6 -26 -4 -28 14 -18 24 13 62 15 62 3
0 -15 -45 -50 -68 -54 -20 -2 -26 4 -38 37 -17 49 -17 70 -2 98 11 22 12 22
24 -8 8 -16 11 -43 8 -58z m883 41 l43 -42 0 -296 -1 -295 -132 -170 -133
-170 -141 -3 -141 -3 -54 75 c-29 40 -88 122 -130 180 l-78 106 0 282 0 282
47 48 47 48 315 0 315 0 43 -42z m-932 -92 c8 -19 12 -43 8 -52 -5 -14 -2 -16
19 -11 15 4 33 10 42 13 24 9 20 -19 -7 -44 -24 -23 -71 -34 -72 -17 0 6 -7
21 -14 34 -19 35 -16 111 5 111 3 0 11 -15 19 -34z m1195 -20 c0 -36 -31 -105
-47 -106 -18 0 -73 50 -73 67 0 10 6 13 16 9 44 -17 64 -18 58 -3 -3 8 2 32
11 53 13 30 18 36 25 24 5 -8 10 -28 10 -44z m-1210 -133 c0 -21 1 -22 36 -7
20 8 39 13 41 10 11 -11 -29 -58 -60 -71 -24 -10 -32 -20 -32 -39 -1 -30 2
-31 24 -12 9 7 27 17 39 21 22 6 23 5 17 -17 -6 -22 -34 -52 -69 -73 -11 -7
-14 -17 -10 -32 l6 -23 30 25 c16 14 34 25 39 25 21 0 6 -45 -26 -77 -19 -19
-35 -41 -35 -47 0 -27 15 -25 46 5 17 17 34 27 37 21 10 -15 -12 -78 -32 -96
-22 -20 -23 -19 -87 40 -23 21 -34 41 -34 59 0 27 0 27 26 10 35 -23 44 -9 12
18 -45 38 -66 107 -33 107 8 0 15 -4 15 -10 0 -5 7 -10 16 -10 12 0 10 7 -10
31 -19 22 -26 42 -26 71 0 41 0 41 20 23 29 -27 32 -15 8 34 -17 36 -19 46 -9
68 l12 27 20 -30 c10 -16 19 -39 19 -51z m1240 30 c0 -19 -9 -48 -20 -63 -13
-18 -16 -31 -10 -35 6 -3 13 1 16 9 3 9 13 16 21 16 24 0 10 -80 -18 -103 -12
-9 -19 -20 -15 -24 3 -4 12 -1 18 5 7 7 18 12 26 12 24 0 6 -60 -28 -95 -36
-38 -39 -53 -5 -31 32 21 35 20 35 -8 0 -28 -45 -86 -65 -86 -8 0 -18 -8 -24
-17 -9 -17 -11 -16 -35 6 -28 26 -43 78 -28 93 6 6 19 -2 36 -23 22 -26 29
-30 37 -18 12 19 11 39 -1 39 -19 0 -60 52 -60 76 0 31 15 30 46 -1 31 -31 31
-31 36 0 4 20 -1 29 -29 45 -30 18 -61 66 -49 78 3 2 21 -5 41 -16 19 -12 35
-17 35 -12 0 4 3 15 6 24 4 11 -3 19 -22 27 -36 13 -74 48 -74 66 0 15 36 9
55 -8 15 -15 25 -10 25 11 0 29 29 82 40 75 6 -4 10 -22 10 -42z m-1254 -423
c16 -6 37 -23 46 -38 16 -25 17 -26 24 -7 9 24 34 55 46 55 14 0 9 -59 -7 -90
-9 -17 -18 -30 -20 -30 -2 0 -21 9 -42 21 -44 23 -83 64 -83 85 0 17 -1 17 36
4z m1136 -26 l21 -36 15 25 c9 14 23 28 31 30 9 3 24 8 34 12 10 4 17 3 17 -5
0 -24 -43 -71 -83 -91 l-42 -20 -17 22 c-19 23 -25 99 -8 99 6 0 20 -16 32
-36z m-37 -106 l7 -30 22 21 c27 26 83 44 92 30 11 -18 -62 -79 -94 -79 -16 0
-32 -6 -35 -14 -4 -11 3 -13 34 -9 31 5 39 2 39 -10 0 -23 -62 -57 -104 -57
-20 0 -36 -4 -36 -10 0 -5 15 -10 34 -10 47 0 52 -14 15 -41 -25 -17 -44 -22
-85 -21 -64 2 -70 -10 -12 -24 52 -11 58 -28 19 -48 -38 -20 -88 -20 -126 0
-16 8 -37 13 -47 11 -25 -7 -31 7 -23 54 5 27 19 52 42 75 19 20 38 33 41 30
9 -9 3 -85 -8 -107 -8 -14 -7 -19 2 -19 31 1 42 19 39 67 -2 38 3 55 20 77 21
27 23 27 30 10 4 -10 8 -34 8 -51 1 -18 5 -33 10 -33 18 0 22 20 10 58 -9 31
-8 45 6 77 l17 40 14 -30 c7 -16 13 -41 14 -55 0 -23 1 -23 17 -7 16 16 16 19
0 46 -18 30 -21 60 -11 99 6 21 8 22 25 6 10 -9 21 -29 24 -46z m-931 36 c11
-29 6 -69 -13 -98 -16 -24 -17 -31 -6 -43 20 -19 22 -17 28 28 8 60 21 67 42
23 15 -31 15 -43 6 -76 -12 -38 -8 -58 10 -58 5 0 9 17 9 38 0 59 13 69 40 32
18 -25 21 -41 17 -76 -4 -36 -1 -46 14 -54 32 -17 37 -11 23 28 -14 40 -18 75
-8 85 9 8 56 -29 71 -56 7 -12 12 -41 13 -64 0 -35 -3 -40 -19 -36 -10 3 -32
-2 -49 -11 -17 -9 -45 -16 -62 -16 -32 0 -90 25 -90 39 0 11 46 31 71 31 12 0
19 5 16 13 -2 6 -13 11 -23 9 -57 -8 -83 -4 -112 17 -43 30 -40 41 8 41 22 0
40 5 40 10 0 6 -18 10 -41 10 -45 0 -99 31 -99 57 0 12 8 14 35 11 24 -3 35 0
35 9 0 8 -12 13 -31 13 -22 0 -41 10 -65 34 -42 42 -44 59 -6 50 34 -8 72 -31
72 -44 0 -6 5 -10 10 -10 6 0 10 8 10 18 0 20 27 62 39 62 5 0 12 -7 15 -16z
m606 -288 c8 -11 9 -20 1 -33 -10 -17 -10 -17 -11 3 0 11 -5 25 -12 32 -8 8
-8 12 -1 12 6 0 16 -7 23 -14z m-313 -8 c-2 -7 -10 -36 -17 -65 -8 -29 -17
-50 -21 -47 -4 2 1 29 11 58 10 30 16 57 13 60 -4 3 -1 6 6 6 7 0 11 -6 8 -12z
m68 -28 c0 -34 -2 -37 -14 -25 -12 11 -12 19 -3 40 16 34 18 32 17 -15z m138
33 c-7 -2 -19 -2 -25 0 -7 3 -2 5 12 5 14 0 19 -2 13 -5z m-83 -27 c0 -14 -11
-38 -24 -53 -23 -26 -25 -26 -19 -5 3 12 9 22 13 22 5 0 11 14 15 30 8 36 15
39 15 6z m76 -10 c12 -19 13 -29 5 -43 -9 -16 -10 -14 -11 10 0 15 -7 30 -15
33 -17 7 -20 24 -5 24 5 0 17 -11 26 -24z m92 -71 c-10 -11 -48 -14 -48 -4 0
5 12 9 27 9 14 0 24 -2 21 -5z m-610 -90 c3 -14 -1 -16 -30 -11 -29 6 -31 5
-14 -6 53 -37 59 -44 52 -71 -10 -42 -85 -50 -100 -11 -9 24 0 29 27 17 14 -6
30 -7 37 -3 10 6 4 13 -23 26 -55 26 -61 66 -13 83 27 11 60 -1 64 -24z m154
1 c16 -23 8 -86 -12 -106 -60 -60 -145 36 -95 107 24 34 84 34 107 -1z m439 8
c13 -16 -1 -24 -41 -21 -21 2 -26 -3 -28 -26 -5 -39 14 -60 40 -46 30 16 43
-3 18 -26 -45 -41 -110 20 -92 87 13 51 72 70 103 32z m-287 -6 c8 -13 7 -26
-1 -49 -8 -21 -9 -38 -3 -50 19 -34 -12 -34 -39 0 -28 34 -41 32 -41 -6 0 -14
-6 -23 -15 -23 -12 0 -15 15 -15 76 l0 75 51 -3 c36 -2 55 -8 63 -20z m138 5
c25 -23 24 -87 -2 -113 -60 -60 -144 37 -94 108 18 27 69 30 96 5z m284 -48
c13 -33 23 -66 23 -72 1 -18 -26 -16 -33 2 -8 21 -56 19 -72 -2 -8 -12 -16
-15 -22 -8 -6 6 0 34 17 78 34 87 54 88 87 2z m161 25 c1 -19 4 -44 8 -55 10
-35 -9 -49 -67 -50 l-53 0 -3 73 -3 73 58 -3 58 -3 2 -35z m137 -26 c20 -49
24 -70 16 -78 -8 -8 -15 -6 -24 7 -16 21 -62 23 -70 2 -5 -13 -36 -22 -36 -11
0 3 12 37 26 75 35 94 52 95 88 5z"/>
<path d="M996 1935 c-3 -9 0 -15 9 -15 16 0 20 16 6 24 -5 3 -11 -1 -15 -9z"/>
<path d="M1306 1935 c-3 -9 0 -15 9 -15 16 0 20 16 6 24 -5 3 -11 -1 -15 -9z"/>
<path d="M898 1725 c-3 -3 -3 -17 0 -30 3 -18 11 -25 26 -24 15 0 17 2 6 7
-20 9 -24 33 -8 43 10 7 9 9 -3 9 -9 0 -18 -2 -21 -5z"/>
<path d="M1030 1715 c-7 -8 -10 -22 -6 -30 7 -20 56 -20 56 0 0 8 -5 15 -11
15 -5 0 -7 -5 -3 -11 4 -7 -1 -10 -12 -7 -24 4 -25 33 -2 32 10 -1 15 2 12 7
-8 13 -20 11 -34 -6z"/>
<path d="M1097 1723 c-4 -3 -7 -17 -7 -30 0 -19 5 -23 28 -22 24 0 25 1 7 9
-13 6 -15 9 -5 9 13 1 13 2 0 11 -13 9 -13 11 0 20 13 8 13 10 -1 10 -9 0 -19
-3 -22 -7z"/>
<path d="M1288 1725 c-2 -3 -3 -18 0 -34 3 -21 8 -28 19 -24 12 5 12 7 1 14
-10 7 -10 9 2 9 13 0 13 1 0 10 -13 9 -13 11 0 20 13 8 13 10 -1 10 -9 0 -18
-2 -21 -5z"/>
<path d="M1377 1724 c-4 -4 -7 -18 -7 -32 0 -19 3 -22 13 -13 10 8 17 7 26 -2
10 -10 12 -6 9 18 -3 28 -25 44 -41 29z m33 -14 c0 -5 -4 -10 -10 -10 -5 0
-10 5 -10 10 0 6 5 10 10 10 6 0 10 -4 10 -10z"/>
<path d="M1453 1723 c-19 -7 -16 -50 4 -57 24 -10 51 20 37 41 -12 19 -23 24
-41 16z m31 -34 c-8 -14 -34 -11 -34 4 0 8 3 17 7 20 9 9 34 -13 27 -24z"/>
<path d="M1521 1721 c-16 -10 -6 -31 15 -31 8 0 13 -4 9 -10 -3 -5 -13 -7 -23
-4 -14 5 -14 4 -3 -4 16 -11 41 -5 41 10 0 5 -9 12 -20 15 -11 3 -17 9 -14 14
3 5 10 6 16 3 7 -4 8 -2 4 4 -8 14 -7 14 -25 3z"/>
<path d="M960 1701 c0 -12 4 -20 9 -16 5 3 12 1 16 -5 12 -19 25 -10 25 18 0
20 -3 23 -9 13 -8 -12 -12 -12 -25 -2 -14 12 -16 10 -16 -8z"/>
<path d="M1150 1699 c0 -11 4 -17 10 -14 6 4 17 1 25 -5 12 -10 15 -9 15 9 0
12 -4 20 -9 16 -5 -3 -12 -1 -16 5 -11 17 -25 11 -25 -11z"/>
<path d="M1222 1695 c0 -16 2 -24 5 -17 2 6 11 12 18 12 7 0 16 -6 18 -12 3
-7 5 1 5 17 0 17 -2 24 -5 18 -2 -7 -11 -13 -18 -13 -7 0 -16 6 -18 13 -3 6
-5 -1 -5 -18z"/>
<path d="M1352 1695 c0 -16 2 -22 5 -12 2 9 2 23 0 30 -3 6 -5 -1 -5 -18z"/>
<path d="M980 1395 l0 -225 26 -42 c25 -39 27 -41 40 -23 8 10 14 24 14 29 0
6 19 19 41 30 27 12 38 23 35 33 -3 8 -6 23 -6 34 0 13 -7 19 -24 19 -20 0
-24 6 -30 39 -3 22 -11 41 -17 43 -8 3 -7 14 5 35 9 18 16 39 16 48 0 8 4 15
9 15 12 0 71 -49 70 -58 -4 -24 4 -44 26 -68 14 -15 25 -37 25 -48 0 -12 4
-26 9 -31 6 -6 12 -30 15 -54 3 -24 12 -51 21 -61 23 -26 19 -30 -31 -30 -25
0 -43 4 -40 9 3 5 -4 11 -17 15 -33 9 -56 5 -27 -4 20 -6 15 -8 -25 -9 -79 -2
-80 -7 -23 -94 l51 -77 77 0 76 0 92 121 92 122 0 228 0 229 -250 0 -250 0 0
-225z m311 152 c18 -12 44 -38 57 -57 23 -35 23 -37 10 -128 -1 -7 -6 -11 -12
-9 -6 2 -16 -3 -23 -12 -11 -15 -73 -24 -73 -11 0 4 -16 25 -35 47 -23 27 -52
47 -85 59 -54 20 -64 38 -25 48 29 7 34 40 8 51 -31 12 26 34 88 35 42 0 64
-6 90 -23z"/>
<path d="M876 1585 c-9 -24 23 -30 40 -9 14 17 15 17 10 2 -3 -10 -1 -18 4
-18 6 0 10 9 10 20 0 23 -28 27 -36 5 -4 -8 -10 -15 -15 -15 -4 0 -6 7 -3 15
4 8 4 15 1 15 -3 0 -8 -7 -11 -15z"/>
<path d="M885 1534 c-12 -13 -13 -19 -4 -31 16 -18 53 -13 57 9 5 26 -33 42
-53 22z m45 -20 c0 -8 -8 -14 -18 -14 -25 0 -34 11 -21 26 13 15 39 7 39 -12z"/>
<path d="M1527 1513 c-11 -10 -8 -33 3 -33 6 0 10 8 10 18 0 14 2 15 10 2 8
-13 11 -13 19 -1 7 11 10 10 14 -5 4 -16 5 -16 6 4 1 18 -4 22 -27 22 -16 0
-32 -3 -35 -7z"/>
<path d="M893 1473 c-7 -2 -13 -10 -13 -16 0 -8 3 -8 11 0 6 6 18 9 25 6 24
-9 15 -23 -13 -23 -20 0 -24 -3 -14 -9 17 -11 51 -2 51 13 0 13 -20 37 -29 35
-4 0 -12 -3 -18 -6z"/>
<path d="M881 1366 c-16 -20 -3 -46 24 -46 13 0 26 7 29 16 7 19 -10 44 -29
44 -7 0 -18 -6 -24 -14z m38 -5 c16 -10 6 -31 -14 -31 -17 0 -28 17 -20 30 8
12 16 12 34 1z"/>
<path d="M1540 1351 c0 -6 8 -11 17 -11 15 0 14 -2 -3 -16 -17 -14 -17 -15 -1
-10 10 3 23 6 28 6 5 0 9 7 9 15 0 8 -4 15 -9 15 -5 0 -16 3 -25 6 -9 3 -16 1
-16 -5z"/>
<path d="M895 1296 c-30 -12 -30 -13 -8 -24 31 -17 38 -15 39 13 1 14 1 25 0
25 0 -1 -14 -7 -31 -14z"/>
<path d="M1535 1290 c-3 -5 2 -10 11 -10 16 0 16 -1 1 -18 -15 -16 -14 -18 10
-16 34 1 55 30 33 44 -20 13 -47 13 -55 0z m55 -20 c0 -5 -4 -10 -10 -10 -5 0
-10 5 -10 10 0 6 5 10 10 10 6 0 10 -4 10 -10z"/>
<path d="M875 1230 c-8 -13 13 -40 30 -40 7 0 18 7 25 15 11 13 11 18 0 28
-10 9 -11 9 -5 -2 9 -16 -12 -32 -32 -24 -8 3 -12 12 -9 19 6 16 0 19 -9 4z"/>
<path d="M1542 1218 c-20 -20 -14 -43 12 -46 32 -2 53 22 36 43 -15 18 -32 19
-48 3z m44 -9 c9 -16 -18 -30 -33 -17 -7 6 -10 14 -7 19 7 13 31 11 40 -2z"/>
<path d="M907 1155 c-20 -28 -14 -34 28 -25 25 5 27 7 11 13 -11 4 -16 13 -12
22 8 23 -7 17 -27 -10z"/>
<path d="M1520 1145 c-14 -17 -7 -31 23 -46 20 -9 20 -9 -2 9 -32 26 -19 48
15 26 13 -9 24 -12 24 -7 0 5 -11 15 -24 21 -19 8 -27 8 -36 -3z"/>
<path d="M934 1104 c-18 -14 -18 -14 6 -3 31 14 36 19 24 19 -6 0 -19 -7 -30
-16z"/>
<path d="M1494 1101 c4 -6 16 -16 28 -22 15 -8 18 -8 14 0 -4 6 -16 16 -28 22
-15 8 -18 8 -14 0z"/>
<path d="M980 1085 c6 -8 9 -19 5 -25 -10 -16 -35 -12 -35 6 0 8 -5 12 -10 9
-14 -9 7 -35 27 -35 9 0 12 -6 8 -19 -8 -27 18 -45 44 -31 12 6 21 15 21 21 0
6 -7 3 -16 -6 -18 -17 -35 -16 -42 3 -2 7 7 16 20 21 18 8 19 10 5 10 -10 1
-15 6 -12 11 9 14 -4 50 -17 50 -7 0 -6 -5 2 -15z"/>
<path d="M1487 1052 c13 -13 22 -16 31 -9 15 12 14 12 -21 21 -27 6 -27 6 -10
-12z"/>
<path d="M1435 1040 c-3 -6 1 -10 9 -10 10 0 13 -6 10 -15 -5 -11 -2 -13 12
-8 13 5 15 3 9 -7 -5 -9 -4 -11 3 -6 18 11 14 22 -12 40 -15 10 -27 12 -31 6z"/>
<path d="M1030 958 c0 -19 -2 -20 -10 -8 -8 13 -10 12 -10 -3 0 -12 6 -17 18
-15 10 2 16 11 14 21 -4 22 15 22 21 0 4 -14 5 -12 6 5 1 16 -5 22 -19 22 -14
0 -20 -7 -20 -22z"/>
<path d="M1409 972 c7 -5 17 -15 21 -21 5 -9 10 -8 18 2 9 10 9 14 -1 14 -6 0
-21 4 -32 8 -14 5 -16 4 -6 -3z"/>
<path d="M1377 943 c27 -5 38 -32 16 -40 -10 -4 -22 1 -31 13 -8 10 -12 13
-10 5 8 -28 36 -37 54 -19 14 14 15 20 4 32 -7 9 -22 15 -34 15 l-21 -2 22 -4z"/>
<path d="M1065 920 c-3 -5 -3 -14 0 -20 3 -5 2 -10 -4 -10 -5 0 -12 5 -14 10
-3 6 -4 5 -3 -2 1 -7 10 -14 19 -16 12 -2 17 4 18 20 1 17 3 18 6 5 2 -9 8
-15 13 -12 13 8 1 35 -15 35 -8 0 -17 -4 -20 -10z"/>
<path d="M1320 885 c-17 -20 -4 -38 20 -25 28 15 34 12 19 -7 -13 -16 -12 -17
3 -4 24 18 13 33 -20 24 -24 -6 -26 -5 -13 10 7 10 11 17 8 17 -2 0 -10 -7
-17 -15z"/>
<path d="M1105 858 c4 -16 3 -19 -3 -9 -7 10 -11 10 -17 1 -11 -17 1 -23 32
-15 15 4 22 10 16 12 -7 3 -13 11 -13 19 0 8 -5 14 -11 14 -6 0 -8 -9 -4 -22z"/>
<path d="M847 503 c-13 -12 -7 -61 9 -74 14 -11 18 -10 30 6 8 10 14 26 14 35
0 29 -36 51 -53 33z"/>
<path d="M990 495 c0 -9 9 -15 25 -15 16 0 25 6 25 15 0 9 -9 15 -25 15 -16 0
-25 -6 -25 -15z"/>
<path d="M1140 489 c-9 -16 -8 -26 5 -45 19 -30 37 -27 49 9 17 46 -32 79 -54
36z"/>
<path d="M1445 471 c-3 -5 -1 -12 5 -16 5 -3 10 1 10 9 0 18 -6 21 -15 7z"/>
<path d="M1580 500 c0 -5 11 -10 25 -10 14 0 25 5 25 10 0 6 -11 10 -25 10
-14 0 -25 -4 -25 -10z"/>
<path d="M1580 434 c0 -10 7 -14 22 -12 32 5 35 28 4 28 -17 0 -26 -5 -26 -16z"/>
<path d="M1740 465 c0 -8 5 -15 10 -15 6 0 10 7 10 15 0 8 -4 15 -10 15 -5 0
-10 -7 -10 -15z"/>
</g>
</svg>
